<svg width="1178" height="426" viewBox="0 0 1178 426" fill="none" xmlns="http://www.w3.org/2000/svg">
  <g clip-path="url(#clip0_1_4)">
    <path fill-rule="evenodd" clip-rule="evenodd"
      d="M213 418C326.218 418 418 326.218 418 213C418 99.7816 326.218 8 213 8C99.7816 8 8 99.7816 8 213C8 326.218 99.7816 418 213 418ZM213 426C330.637 426 426 330.637 426 213C426 95.3633 330.637 0 213 0C95.3633 0 0 95.3633 0 213C0 330.637 95.3633 426 213 426Z"
      fill="black" />
    <path fill-rule="evenodd" clip-rule="evenodd"
      d="M213 338C282.036 338 338 282.036 338 213C338 143.964 282.036 88 213 88C143.964 88 88 143.964 88 213C88 282.036 143.964 338 213 338ZM213 346C286.454 346 346 286.454 346 213C346 139.546 286.454 80 213 80C139.546 80 80 139.546 80 213C80 286.454 139.546 346 213 346Z"
      fill="black" />
    <path
      d="M156.37 176.131C156.234 174.756 155.648 173.687 154.614 172.926C153.58 172.165 152.177 171.784 150.404 171.784C149.2 171.784 148.183 171.955 147.353 172.295C146.523 172.625 145.887 173.085 145.444 173.676C145.012 174.267 144.796 174.938 144.796 175.688C144.773 176.312 144.904 176.858 145.188 177.324C145.484 177.79 145.887 178.193 146.398 178.534C146.91 178.864 147.501 179.153 148.171 179.403C148.842 179.642 149.558 179.847 150.319 180.017L153.455 180.767C154.978 181.108 156.376 181.562 157.648 182.131C158.921 182.699 160.023 183.398 160.955 184.227C161.887 185.057 162.609 186.034 163.12 187.159C163.643 188.284 163.91 189.574 163.921 191.028C163.91 193.165 163.364 195.017 162.285 196.585C161.217 198.142 159.671 199.352 157.648 200.216C155.637 201.068 153.211 201.494 150.37 201.494C147.552 201.494 145.097 201.062 143.006 200.199C140.927 199.335 139.302 198.057 138.131 196.364C136.972 194.659 136.364 192.551 136.308 190.04H143.45C143.529 191.21 143.864 192.187 144.455 192.972C145.058 193.744 145.859 194.33 146.859 194.727C147.87 195.114 149.012 195.307 150.285 195.307C151.535 195.307 152.62 195.125 153.54 194.761C154.472 194.398 155.194 193.892 155.705 193.244C156.217 192.597 156.472 191.852 156.472 191.011C156.472 190.227 156.239 189.568 155.773 189.034C155.319 188.5 154.648 188.045 153.762 187.67C152.887 187.295 151.813 186.955 150.54 186.648L146.739 185.693C143.796 184.977 141.472 183.858 139.768 182.335C138.063 180.812 137.217 178.761 137.228 176.182C137.217 174.068 137.779 172.222 138.915 170.642C140.063 169.062 141.637 167.83 143.637 166.943C145.637 166.057 147.91 165.614 150.455 165.614C153.046 165.614 155.308 166.057 157.239 166.943C159.183 167.83 160.694 169.062 161.773 170.642C162.853 172.222 163.41 174.051 163.444 176.131H156.37ZM168.886 201V166.091H192.408V172.176H176.266V180.494H191.198V186.58H176.266V194.915H192.477V201H168.886ZM198.276 201V166.091H212.049C214.697 166.091 216.952 166.597 218.816 167.608C220.68 168.608 222.1 170 223.077 171.784C224.066 173.557 224.56 175.602 224.56 177.92C224.56 180.239 224.06 182.284 223.06 184.057C222.06 185.83 220.612 187.21 218.714 188.199C216.827 189.187 214.543 189.682 211.862 189.682H203.083V183.767H210.668C212.089 183.767 213.259 183.523 214.18 183.034C215.112 182.534 215.805 181.847 216.259 180.972C216.725 180.085 216.958 179.068 216.958 177.92C216.958 176.761 216.725 175.75 216.259 174.886C215.805 174.011 215.112 173.335 214.18 172.858C213.248 172.369 212.066 172.125 210.634 172.125H205.657V201H198.276ZM255.447 166.091V201H248.066V173.097H247.862L239.867 178.108V171.562L248.509 166.091H255.447ZM277.141 201.477C275.346 201.466 273.613 201.165 271.942 200.574C270.283 199.983 268.795 199.023 267.477 197.693C266.158 196.364 265.113 194.602 264.34 192.409C263.579 190.216 263.198 187.523 263.198 184.33C263.21 181.398 263.545 178.778 264.204 176.472C264.874 174.153 265.829 172.187 267.067 170.574C268.317 168.96 269.812 167.733 271.55 166.892C273.289 166.04 275.238 165.614 277.397 165.614C279.727 165.614 281.783 166.068 283.567 166.977C285.352 167.875 286.783 169.097 287.863 170.642C288.954 172.188 289.613 173.92 289.84 175.841H282.562C282.278 174.625 281.681 173.67 280.772 172.977C279.863 172.284 278.738 171.938 277.397 171.938C275.124 171.938 273.397 172.926 272.215 174.903C271.045 176.881 270.448 179.568 270.425 182.966H270.664C271.187 181.932 271.891 181.051 272.778 180.324C273.675 179.585 274.692 179.023 275.829 178.636C276.977 178.239 278.187 178.04 279.46 178.04C281.528 178.04 283.369 178.528 284.982 179.506C286.596 180.472 287.869 181.801 288.8 183.494C289.732 185.187 290.198 187.125 290.198 189.307C290.198 191.67 289.647 193.773 288.545 195.614C287.454 197.455 285.925 198.898 283.96 199.943C282.005 200.977 279.732 201.489 277.141 201.477ZM277.107 195.682C278.244 195.682 279.261 195.409 280.158 194.864C281.056 194.318 281.761 193.58 282.272 192.648C282.783 191.716 283.039 190.67 283.039 189.511C283.039 188.352 282.783 187.312 282.272 186.392C281.772 185.472 281.079 184.739 280.192 184.193C279.306 183.648 278.295 183.375 277.158 183.375C276.306 183.375 275.516 183.534 274.789 183.852C274.073 184.17 273.442 184.614 272.897 185.182C272.363 185.75 271.942 186.409 271.636 187.159C271.329 187.898 271.175 188.687 271.175 189.528C271.175 190.653 271.431 191.682 271.942 192.614C272.465 193.545 273.17 194.29 274.056 194.847C274.954 195.403 275.971 195.682 277.107 195.682ZM153.681 259V253.682L166.107 242.176C167.164 241.153 168.05 240.233 168.766 239.415C169.494 238.597 170.045 237.795 170.42 237.011C170.795 236.216 170.982 235.358 170.982 234.438C170.982 233.415 170.749 232.534 170.283 231.795C169.817 231.045 169.181 230.472 168.374 230.074C167.567 229.665 166.653 229.46 165.63 229.46C164.562 229.46 163.63 229.676 162.835 230.108C162.039 230.54 161.425 231.159 160.994 231.966C160.562 232.773 160.346 233.733 160.346 234.847H153.34C153.34 232.562 153.857 230.58 154.891 228.898C155.925 227.216 157.374 225.915 159.238 224.994C161.102 224.074 163.249 223.614 165.681 223.614C168.181 223.614 170.357 224.057 172.21 224.943C174.073 225.818 175.522 227.034 176.556 228.591C177.59 230.148 178.107 231.932 178.107 233.943C178.107 235.261 177.846 236.562 177.323 237.847C176.812 239.131 175.897 240.557 174.579 242.125C173.261 243.682 171.403 245.551 169.005 247.733L163.908 252.727V252.966H178.567V259H153.681ZM197.603 259.767C194.671 259.756 192.148 259.034 190.035 257.602C187.933 256.17 186.313 254.097 185.177 251.381C184.052 248.665 183.495 245.398 183.506 241.58C183.506 237.773 184.069 234.528 185.194 231.847C186.33 229.165 187.95 227.125 190.052 225.727C192.165 224.318 194.683 223.614 197.603 223.614C200.523 223.614 203.035 224.318 205.137 225.727C207.251 227.136 208.876 229.182 210.012 231.864C211.148 234.534 211.711 237.773 211.7 241.58C211.7 245.409 211.131 248.682 209.995 251.398C208.87 254.114 207.256 256.187 205.154 257.619C203.052 259.051 200.535 259.767 197.603 259.767ZM197.603 253.648C199.603 253.648 201.2 252.642 202.393 250.631C203.586 248.619 204.177 245.602 204.165 241.58C204.165 238.932 203.893 236.727 203.347 234.966C202.813 233.205 202.052 231.881 201.063 230.994C200.086 230.108 198.933 229.665 197.603 229.665C195.614 229.665 194.023 230.659 192.83 232.648C191.637 234.636 191.035 237.614 191.023 241.58C191.023 244.261 191.29 246.5 191.825 248.295C192.37 250.08 193.137 251.42 194.126 252.318C195.114 253.205 196.273 253.648 197.603 253.648ZM216.962 259V253.682L229.388 242.176C230.445 241.153 231.332 240.233 232.048 239.415C232.775 238.597 233.326 237.795 233.701 237.011C234.076 236.216 234.263 235.358 234.263 234.438C234.263 233.415 234.031 232.534 233.565 231.795C233.099 231.045 232.462 230.472 231.656 230.074C230.849 229.665 229.934 229.46 228.911 229.46C227.843 229.46 226.911 229.676 226.116 230.108C225.32 230.54 224.707 231.159 224.275 231.966C223.843 232.773 223.627 233.733 223.627 234.847H216.621C216.621 232.562 217.138 230.58 218.173 228.898C219.207 227.216 220.656 225.915 222.519 224.994C224.383 224.074 226.531 223.614 228.962 223.614C231.462 223.614 233.638 224.057 235.491 224.943C237.354 225.818 238.803 227.034 239.837 228.591C240.871 230.148 241.388 231.932 241.388 233.943C241.388 235.261 241.127 236.562 240.604 237.847C240.093 239.131 239.178 240.557 237.86 242.125C236.542 243.682 234.684 245.551 232.286 247.733L227.19 252.727V252.966H241.849V259H216.962ZM245.918 252.864V247.051L260.492 224.091H265.504V232.136H262.538L253.35 246.676V246.949H274.06V252.864H245.918ZM262.674 259V251.091L262.81 248.517V224.091H269.731V259H262.674Z"
      fill="black" />
    <path
      d="M695.276 143V108.091H718.39V114.176H702.657V122.494H716.856V128.58H702.657V143H695.276ZM730.735 108.091V143H723.354V108.091H730.735ZM736.808 143V108.091H750.58C753.217 108.091 755.467 108.562 757.33 109.506C759.205 110.437 760.631 111.761 761.609 113.477C762.597 115.182 763.092 117.187 763.092 119.494C763.092 121.812 762.592 123.807 761.592 125.477C760.592 127.136 759.143 128.409 757.245 129.295C755.359 130.182 753.075 130.625 750.393 130.625H741.171V124.693H749.2C750.609 124.693 751.779 124.5 752.711 124.114C753.643 123.727 754.336 123.148 754.79 122.375C755.256 121.602 755.489 120.642 755.489 119.494C755.489 118.335 755.256 117.358 754.79 116.562C754.336 115.767 753.637 115.165 752.694 114.756C751.762 114.335 750.586 114.125 749.165 114.125H744.188V143H736.808ZM755.66 127.114L764.336 143H756.188L747.7 127.114H755.66ZM787.245 118.131C787.109 116.756 786.523 115.687 785.489 114.926C784.455 114.165 783.052 113.784 781.279 113.784C780.075 113.784 779.058 113.955 778.228 114.295C777.398 114.625 776.762 115.085 776.319 115.676C775.887 116.267 775.671 116.938 775.671 117.688C775.648 118.312 775.779 118.858 776.063 119.324C776.359 119.79 776.762 120.193 777.273 120.534C777.785 120.864 778.376 121.153 779.046 121.403C779.717 121.642 780.433 121.847 781.194 122.017L784.33 122.767C785.853 123.108 787.251 123.562 788.523 124.131C789.796 124.699 790.898 125.398 791.83 126.227C792.762 127.057 793.484 128.034 793.995 129.159C794.518 130.284 794.785 131.574 794.796 133.028C794.785 135.165 794.239 137.017 793.16 138.585C792.092 140.142 790.546 141.352 788.523 142.216C786.512 143.068 784.086 143.494 781.245 143.494C778.427 143.494 775.972 143.062 773.881 142.199C771.802 141.335 770.177 140.057 769.006 138.364C767.847 136.659 767.239 134.551 767.183 132.04H774.325C774.404 133.21 774.739 134.187 775.33 134.972C775.933 135.744 776.734 136.33 777.734 136.727C778.745 137.114 779.887 137.307 781.16 137.307C782.41 137.307 783.495 137.125 784.415 136.761C785.347 136.398 786.069 135.892 786.58 135.244C787.092 134.597 787.347 133.852 787.347 133.011C787.347 132.227 787.114 131.568 786.648 131.034C786.194 130.5 785.523 130.045 784.637 129.67C783.762 129.295 782.688 128.955 781.415 128.648L777.614 127.693C774.671 126.977 772.347 125.858 770.643 124.335C768.938 122.812 768.092 120.761 768.103 118.182C768.092 116.068 768.654 114.222 769.79 112.642C770.938 111.062 772.512 109.83 774.512 108.943C776.512 108.057 778.785 107.614 781.33 107.614C783.921 107.614 786.183 108.057 788.114 108.943C790.058 109.83 791.569 111.062 792.648 112.642C793.728 114.222 794.285 116.051 794.319 118.131H787.245ZM798.431 114.176V108.091H827.102V114.176H816.414V143H809.119V114.176H798.431ZM873.734 120.312H866.268C866.131 119.347 865.853 118.489 865.433 117.739C865.012 116.977 864.472 116.33 863.813 115.795C863.154 115.261 862.393 114.852 861.529 114.568C860.677 114.284 859.751 114.142 858.751 114.142C856.944 114.142 855.37 114.591 854.029 115.489C852.688 116.375 851.648 117.67 850.91 119.375C850.171 121.068 849.802 123.125 849.802 125.545C849.802 128.034 850.171 130.125 850.91 131.818C851.66 133.511 852.705 134.79 854.046 135.653C855.387 136.517 856.938 136.949 858.7 136.949C859.688 136.949 860.603 136.818 861.444 136.557C862.296 136.295 863.052 135.915 863.711 135.415C864.37 134.903 864.915 134.284 865.347 133.557C865.79 132.83 866.097 132 866.268 131.068L873.734 131.102C873.54 132.705 873.058 134.25 872.285 135.739C871.523 137.216 870.495 138.54 869.2 139.71C867.915 140.869 866.381 141.79 864.597 142.472C862.825 143.142 860.819 143.477 858.58 143.477C855.467 143.477 852.683 142.773 850.228 141.364C847.785 139.955 845.853 137.915 844.433 135.244C843.023 132.574 842.319 129.341 842.319 125.545C842.319 121.739 843.035 118.5 844.467 115.83C845.898 113.159 847.842 111.125 850.296 109.727C852.751 108.318 855.512 107.614 858.58 107.614C860.603 107.614 862.478 107.898 864.205 108.466C865.944 109.034 867.484 109.864 868.825 110.955C870.165 112.034 871.256 113.358 872.097 114.926C872.95 116.494 873.495 118.29 873.734 120.312ZM879.026 143V108.091H886.407V136.915H901.373V143H879.026ZM913.168 143H905.259L917.31 108.091H926.822L938.856 143H930.947L922.202 116.068H921.93L913.168 143ZM912.674 129.278H931.356V135.04H912.674V129.278ZM961.198 118.131C961.062 116.756 960.477 115.687 959.442 114.926C958.408 114.165 957.005 113.784 955.232 113.784C954.028 113.784 953.011 113.955 952.181 114.295C951.352 114.625 950.715 115.085 950.272 115.676C949.84 116.267 949.624 116.938 949.624 117.688C949.602 118.312 949.732 118.858 950.016 119.324C950.312 119.79 950.715 120.193 951.227 120.534C951.738 120.864 952.329 121.153 952.999 121.403C953.67 121.642 954.386 121.847 955.147 122.017L958.283 122.767C959.806 123.108 961.204 123.562 962.477 124.131C963.749 124.699 964.852 125.398 965.783 126.227C966.715 127.057 967.437 128.034 967.948 129.159C968.471 130.284 968.738 131.574 968.749 133.028C968.738 135.165 968.192 137.017 967.113 138.585C966.045 140.142 964.499 141.352 962.477 142.216C960.465 143.068 958.039 143.494 955.198 143.494C952.38 143.494 949.925 143.062 947.835 142.199C945.755 141.335 944.13 140.057 942.96 138.364C941.8 136.659 941.192 134.551 941.136 132.04H948.278C948.357 133.21 948.692 134.187 949.283 134.972C949.886 135.744 950.687 136.33 951.687 136.727C952.698 137.114 953.84 137.307 955.113 137.307C956.363 137.307 957.448 137.125 958.369 136.761C959.3 136.398 960.022 135.892 960.533 135.244C961.045 134.597 961.3 133.852 961.3 133.011C961.3 132.227 961.067 131.568 960.602 131.034C960.147 130.5 959.477 130.045 958.59 129.67C957.715 129.295 956.641 128.955 955.369 128.648L951.567 127.693C948.624 126.977 946.3 125.858 944.596 124.335C942.891 122.812 942.045 120.761 942.056 118.182C942.045 116.068 942.607 114.222 943.744 112.642C944.891 111.062 946.465 109.83 948.465 108.943C950.465 108.057 952.738 107.614 955.283 107.614C957.874 107.614 960.136 108.057 962.067 108.943C964.011 109.83 965.522 111.062 966.602 112.642C967.681 114.222 968.238 116.051 968.272 118.131H961.198ZM992.651 118.131C992.515 116.756 991.93 115.687 990.896 114.926C989.862 114.165 988.458 113.784 986.685 113.784C985.481 113.784 984.464 113.955 983.634 114.295C982.805 114.625 982.168 115.085 981.725 115.676C981.293 116.267 981.077 116.938 981.077 117.688C981.055 118.312 981.185 118.858 981.469 119.324C981.765 119.79 982.168 120.193 982.68 120.534C983.191 120.864 983.782 121.153 984.452 121.403C985.123 121.642 985.839 121.847 986.6 122.017L989.737 122.767C991.259 123.108 992.657 123.562 993.93 124.131C995.202 124.699 996.305 125.398 997.237 126.227C998.168 127.057 998.89 128.034 999.401 129.159C999.924 130.284 1000.19 131.574 1000.2 133.028C1000.19 135.165 999.646 137.017 998.566 138.585C997.498 140.142 995.952 141.352 993.93 142.216C991.918 143.068 989.492 143.494 986.651 143.494C983.833 143.494 981.379 143.062 979.288 142.199C977.208 141.335 975.583 140.057 974.413 138.364C973.254 136.659 972.646 134.551 972.589 132.04H979.731C979.81 133.21 980.146 134.187 980.737 134.972C981.339 135.744 982.14 136.33 983.14 136.727C984.151 137.114 985.293 137.307 986.566 137.307C987.816 137.307 988.901 137.125 989.822 136.761C990.754 136.398 991.475 135.892 991.987 135.244C992.498 134.597 992.754 133.852 992.754 133.011C992.754 132.227 992.521 131.568 992.055 131.034C991.6 130.5 990.93 130.045 990.043 129.67C989.168 129.295 988.094 128.955 986.822 128.648L983.021 127.693C980.077 126.977 977.754 125.858 976.049 124.335C974.344 122.812 973.498 120.761 973.509 118.182C973.498 116.068 974.06 114.222 975.197 112.642C976.344 111.062 977.918 109.83 979.918 108.943C981.918 108.057 984.191 107.614 986.737 107.614C989.327 107.614 991.589 108.057 993.521 108.943C995.464 109.83 996.975 111.062 998.055 112.642C999.134 114.222 999.691 116.051 999.725 118.131H992.651ZM1016.28 108.091H1025.38L1034.99 131.545H1035.4L1045.01 108.091H1054.12V143H1046.96V120.278H1046.67L1037.63 142.83H1032.76L1023.73 120.193H1023.44V143H1016.28V108.091ZM1066.22 143H1058.31L1070.36 108.091H1079.87L1091.9 143H1083.99L1075.25 116.068H1074.98L1066.22 143ZM1065.72 129.278H1084.4V135.04H1065.72V129.278ZM1103.49 108.091V143H1096.1V108.091H1103.49ZM1109.56 143V108.091H1116.94V136.915H1131.9V143H1109.56ZM772.128 166.091H779.509V188.761C779.509 191.307 778.901 193.534 777.685 195.443C776.48 197.352 774.793 198.841 772.622 199.909C770.452 200.966 767.923 201.494 765.037 201.494C762.139 201.494 759.605 200.966 757.435 199.909C755.264 198.841 753.577 197.352 752.372 195.443C751.168 193.534 750.565 191.307 750.565 188.761V166.091H757.946V188.131C757.946 189.46 758.236 190.642 758.815 191.676C759.406 192.71 760.236 193.523 761.304 194.114C762.372 194.705 763.616 195 765.037 195C766.469 195 767.713 194.705 768.77 194.114C769.838 193.523 770.662 192.71 771.241 191.676C771.832 190.642 772.128 189.46 772.128 188.131V166.091ZM788.048 201.443C786.923 201.443 785.957 201.045 785.151 200.25C784.355 199.443 783.957 198.477 783.957 197.352C783.957 196.239 784.355 195.284 785.151 194.489C785.957 193.693 786.923 193.295 788.048 193.295C789.139 193.295 790.094 193.693 790.912 194.489C791.73 195.284 792.139 196.239 792.139 197.352C792.139 198.102 791.946 198.79 791.56 199.415C791.185 200.028 790.69 200.523 790.077 200.898C789.463 201.261 788.787 201.443 788.048 201.443ZM817.175 176.131C817.038 174.756 816.453 173.687 815.419 172.926C814.385 172.165 812.982 171.784 811.209 171.784C810.004 171.784 808.987 171.955 808.158 172.295C807.328 172.625 806.692 173.085 806.249 173.676C805.817 174.267 805.601 174.938 805.601 175.688C805.578 176.312 805.709 176.858 805.993 177.324C806.288 177.79 806.692 178.193 807.203 178.534C807.714 178.864 808.305 179.153 808.976 179.403C809.646 179.642 810.362 179.847 811.124 180.017L814.26 180.767C815.783 181.108 817.18 181.562 818.453 182.131C819.726 182.699 820.828 183.398 821.76 184.227C822.692 185.057 823.413 186.034 823.925 187.159C824.447 188.284 824.714 189.574 824.726 191.028C824.714 193.165 824.169 195.017 823.089 196.585C822.021 198.142 820.476 199.352 818.453 200.216C816.442 201.068 814.016 201.494 811.175 201.494C808.357 201.494 805.902 201.062 803.811 200.199C801.732 199.335 800.107 198.057 798.936 196.364C797.777 194.659 797.169 192.551 797.112 190.04H804.254C804.334 191.21 804.669 192.187 805.26 192.972C805.862 193.744 806.663 194.33 807.663 194.727C808.675 195.114 809.817 195.307 811.089 195.307C812.339 195.307 813.425 195.125 814.345 194.761C815.277 194.398 815.999 193.892 816.51 193.244C817.021 192.597 817.277 191.852 817.277 191.011C817.277 190.227 817.044 189.568 816.578 189.034C816.124 188.5 815.453 188.045 814.567 187.67C813.692 187.295 812.618 186.955 811.345 186.648L807.544 185.693C804.601 184.977 802.277 183.858 800.572 182.335C798.868 180.812 798.021 178.761 798.033 176.182C798.021 174.068 798.584 172.222 799.72 170.642C800.868 169.062 802.442 167.83 804.442 166.943C806.442 166.057 808.714 165.614 811.26 165.614C813.851 165.614 816.112 166.057 818.044 166.943C819.987 167.83 821.499 169.062 822.578 170.642C823.658 172.222 824.214 174.051 824.249 176.131H817.175ZM833.798 201.443C832.673 201.443 831.707 201.045 830.901 200.25C830.105 199.443 829.707 198.477 829.707 197.352C829.707 196.239 830.105 195.284 830.901 194.489C831.707 193.693 832.673 193.295 833.798 193.295C834.889 193.295 835.844 193.693 836.662 194.489C837.48 195.284 837.889 196.239 837.889 197.352C837.889 198.102 837.696 198.79 837.31 199.415C836.935 200.028 836.44 200.523 835.827 200.898C835.213 201.261 834.537 201.443 833.798 201.443ZM853.456 201V166.091H867.229C869.876 166.091 872.132 166.597 873.996 167.608C875.859 168.608 877.28 170 878.257 171.784C879.246 173.557 879.74 175.602 879.74 177.92C879.74 180.239 879.24 182.284 878.24 184.057C877.24 185.83 875.791 187.21 873.893 188.199C872.007 189.187 869.723 189.682 867.041 189.682H858.263V183.767H865.848C867.268 183.767 868.439 183.523 869.359 183.034C870.291 182.534 870.984 181.847 871.439 180.972C871.905 180.085 872.138 179.068 872.138 177.92C872.138 176.761 871.905 175.75 871.439 174.886C870.984 174.011 870.291 173.335 869.359 172.858C868.428 172.369 867.246 172.125 865.814 172.125H860.837V201H853.456ZM916.614 183.545C916.614 187.352 915.892 190.591 914.449 193.261C913.017 195.932 911.063 197.972 908.585 199.381C906.119 200.778 903.347 201.477 900.267 201.477C897.165 201.477 894.381 200.773 891.915 199.364C889.449 197.955 887.5 195.915 886.068 193.244C884.636 190.574 883.92 187.341 883.92 183.545C883.92 179.739 884.636 176.5 886.068 173.83C887.5 171.159 889.449 169.125 891.915 167.727C894.381 166.318 897.165 165.614 900.267 165.614C903.347 165.614 906.119 166.318 908.585 167.727C911.063 169.125 913.017 171.159 914.449 173.83C915.892 176.5 916.614 179.739 916.614 183.545ZM909.131 183.545C909.131 181.08 908.761 179 908.023 177.307C907.295 175.614 906.267 174.33 904.938 173.455C903.608 172.58 902.051 172.142 900.267 172.142C898.483 172.142 896.926 172.58 895.597 173.455C894.267 174.33 893.233 175.614 892.494 177.307C891.767 179 891.403 181.08 891.403 183.545C891.403 186.011 891.767 188.091 892.494 189.784C893.233 191.477 894.267 192.761 895.597 193.636C896.926 194.511 898.483 194.949 900.267 194.949C902.051 194.949 903.608 194.511 904.938 193.636C906.267 192.761 907.295 191.477 908.023 189.784C908.761 188.091 909.131 186.011 909.131 183.545ZM941.018 176.131C940.882 174.756 940.297 173.687 939.263 172.926C938.229 172.165 936.825 171.784 935.053 171.784C933.848 171.784 932.831 171.955 932.001 172.295C931.172 172.625 930.536 173.085 930.092 173.676C929.661 174.267 929.445 174.938 929.445 175.688C929.422 176.312 929.553 176.858 929.837 177.324C930.132 177.79 930.536 178.193 931.047 178.534C931.558 178.864 932.149 179.153 932.82 179.403C933.49 179.642 934.206 179.847 934.967 180.017L938.104 180.767C939.626 181.108 941.024 181.562 942.297 182.131C943.57 182.699 944.672 183.398 945.604 184.227C946.536 185.057 947.257 186.034 947.768 187.159C948.291 188.284 948.558 189.574 948.57 191.028C948.558 193.165 948.013 195.017 946.933 196.585C945.865 198.142 944.32 199.352 942.297 200.216C940.286 201.068 937.859 201.494 935.018 201.494C932.2 201.494 929.746 201.062 927.655 200.199C925.575 199.335 923.95 198.057 922.78 196.364C921.621 194.659 921.013 192.551 920.956 190.04H928.098C928.178 191.21 928.513 192.187 929.104 192.972C929.706 193.744 930.507 194.33 931.507 194.727C932.518 195.114 933.661 195.307 934.933 195.307C936.183 195.307 937.268 195.125 938.189 194.761C939.121 194.398 939.842 193.892 940.354 193.244C940.865 192.597 941.121 191.852 941.121 191.011C941.121 190.227 940.888 189.568 940.422 189.034C939.967 188.5 939.297 188.045 938.411 187.67C937.536 187.295 936.462 186.955 935.189 186.648L931.388 185.693C928.445 184.977 926.121 183.858 924.416 182.335C922.712 180.812 921.865 178.761 921.876 176.182C921.865 174.068 922.428 172.222 923.564 170.642C924.712 169.062 926.286 167.83 928.286 166.943C930.286 166.057 932.558 165.614 935.104 165.614C937.695 165.614 939.956 166.057 941.888 166.943C943.831 167.83 945.342 169.062 946.422 170.642C947.501 172.222 948.058 174.051 948.092 176.131H941.018ZM952.205 172.176V166.091H980.875V172.176H970.188V201H962.892V172.176H952.205ZM987.348 201H979.439L991.49 166.091H1001L1013.04 201H1005.13L996.382 174.068H996.109L987.348 201ZM986.854 187.278H1005.54V193.04H986.854V187.278ZM1038.74 177.375C1038.51 176.545 1038.17 175.812 1037.74 175.176C1037.31 174.528 1036.78 173.983 1036.15 173.54C1035.54 173.085 1034.84 172.739 1034.04 172.5C1033.26 172.261 1032.39 172.142 1031.43 172.142C1029.65 172.142 1028.08 172.585 1026.73 173.472C1025.39 174.358 1024.34 175.648 1023.59 177.341C1022.84 179.023 1022.47 181.08 1022.47 183.511C1022.47 185.943 1022.84 188.011 1023.57 189.716C1024.31 191.42 1025.36 192.722 1026.71 193.619C1028.06 194.506 1029.66 194.949 1031.5 194.949C1033.17 194.949 1034.6 194.653 1035.78 194.062C1036.97 193.46 1037.88 192.614 1038.51 191.523C1039.14 190.432 1039.46 189.142 1039.46 187.653L1040.96 187.875H1031.96V182.318H1046.57V186.716C1046.57 189.784 1045.92 192.42 1044.62 194.625C1043.33 196.818 1041.55 198.511 1039.27 199.705C1037 200.886 1034.4 201.477 1031.47 201.477C1028.19 201.477 1025.32 200.756 1022.84 199.312C1020.36 197.858 1018.43 195.795 1017.05 193.125C1015.67 190.443 1014.98 187.261 1014.98 183.58C1014.98 180.75 1015.39 178.227 1016.21 176.011C1017.04 173.784 1018.2 171.898 1019.69 170.352C1021.18 168.807 1022.91 167.631 1024.89 166.824C1026.86 166.017 1029.01 165.614 1031.31 165.614C1033.29 165.614 1035.13 165.903 1036.84 166.483C1038.54 167.051 1040.05 167.858 1041.37 168.903C1042.7 169.949 1043.78 171.193 1044.62 172.636C1045.47 174.068 1046.01 175.648 1046.24 177.375H1038.74ZM1052.11 201V166.091H1075.63V172.176H1059.49V180.494H1074.42V186.58H1059.49V194.915H1075.7V201H1052.11ZM787.081 259V224.091H800.854C803.501 224.091 805.757 224.597 807.621 225.608C809.484 226.608 810.905 228 811.882 229.784C812.871 231.557 813.365 233.602 813.365 235.92C813.365 238.239 812.865 240.284 811.865 242.057C810.865 243.83 809.416 245.21 807.518 246.199C805.632 247.187 803.348 247.682 800.666 247.682H791.888V241.767H799.473C800.893 241.767 802.064 241.523 802.984 241.034C803.916 240.534 804.609 239.847 805.064 238.972C805.53 238.085 805.763 237.068 805.763 235.92C805.763 234.761 805.53 233.75 805.064 232.886C804.609 232.011 803.916 231.335 802.984 230.858C802.053 230.369 800.871 230.125 799.439 230.125H794.462V259H787.081ZM820.145 259H812.236L824.287 224.091H833.798L845.832 259H837.923L829.179 232.068H828.906L820.145 259ZM819.651 245.278H838.332V251.04H819.651V245.278ZM857.415 224.091V259H850.034V224.091H857.415ZM875.862 259H863.487V224.091H875.964C879.476 224.091 882.499 224.79 885.033 226.188C887.567 227.574 889.516 229.568 890.879 232.17C892.254 234.773 892.942 237.886 892.942 241.511C892.942 245.148 892.254 248.273 890.879 250.886C889.516 253.5 887.555 255.506 884.999 256.903C882.453 258.301 879.408 259 875.862 259ZM870.868 252.676H875.555C877.737 252.676 879.572 252.29 881.061 251.517C882.561 250.733 883.686 249.523 884.436 247.886C885.197 246.239 885.578 244.114 885.578 241.511C885.578 238.932 885.197 236.824 884.436 235.188C883.686 233.551 882.567 232.347 881.078 231.574C879.589 230.801 877.754 230.415 875.572 230.415H870.868V252.676ZM921.041 263.364V219.727H923.837V263.364H921.041ZM928.456 234.131C928.32 232.756 927.734 231.687 926.7 230.926C925.666 230.165 924.263 229.784 922.49 229.784C921.286 229.784 920.268 229.955 919.439 230.295C918.609 230.625 917.973 231.085 917.53 231.676C917.098 232.267 916.882 232.938 916.882 233.688C916.859 234.312 916.99 234.858 917.274 235.324C917.57 235.79 917.973 236.193 918.484 236.534C918.996 236.864 919.587 237.153 920.257 237.403C920.928 237.642 921.643 237.847 922.405 238.017L925.541 238.767C927.064 239.108 928.462 239.562 929.734 240.131C931.007 240.699 932.109 241.398 933.041 242.227C933.973 243.057 934.695 244.034 935.206 245.159C935.729 246.284 935.996 247.574 936.007 249.028C935.996 251.165 935.45 253.017 934.371 254.585C933.303 256.142 931.757 257.352 929.734 258.216C927.723 259.068 925.297 259.494 922.456 259.494C919.638 259.494 917.183 259.062 915.092 258.199C913.013 257.335 911.388 256.057 910.217 254.364C909.058 252.659 908.45 250.551 908.393 248.04H915.536C915.615 249.21 915.95 250.187 916.541 250.972C917.143 251.744 917.945 252.33 918.945 252.727C919.956 253.114 921.098 253.307 922.371 253.307C923.621 253.307 924.706 253.125 925.626 252.761C926.558 252.398 927.28 251.892 927.791 251.244C928.303 250.597 928.558 249.852 928.558 249.011C928.558 248.227 928.325 247.568 927.859 247.034C927.405 246.5 926.734 246.045 925.848 245.67C924.973 245.295 923.899 244.955 922.626 244.648L918.825 243.693C915.882 242.977 913.558 241.858 911.854 240.335C910.149 238.812 909.303 236.761 909.314 234.182C909.303 232.068 909.865 230.222 911.001 228.642C912.149 227.062 913.723 225.83 915.723 224.943C917.723 224.057 919.996 223.614 922.541 223.614C925.132 223.614 927.393 224.057 929.325 224.943C931.268 225.83 932.78 227.062 933.859 228.642C934.939 230.222 935.496 232.051 935.53 234.131H928.456ZM954.455 259.767C951.523 259.756 949 259.034 946.886 257.602C944.784 256.17 943.165 254.097 942.028 251.381C940.903 248.665 940.347 245.398 940.358 241.58C940.358 237.773 940.92 234.528 942.045 231.847C943.182 229.165 944.801 227.125 946.903 225.727C949.017 224.318 951.534 223.614 954.455 223.614C957.375 223.614 959.886 224.318 961.989 225.727C964.102 227.136 965.727 229.182 966.864 231.864C968 234.534 968.563 237.773 968.551 241.58C968.551 245.409 967.983 248.682 966.847 251.398C965.722 254.114 964.108 256.187 962.006 257.619C959.903 259.051 957.386 259.767 954.455 259.767ZM954.455 253.648C956.455 253.648 958.051 252.642 959.244 250.631C960.438 248.619 961.028 245.602 961.017 241.58C961.017 238.932 960.744 236.727 960.199 234.966C959.665 233.205 958.903 231.881 957.915 230.994C956.938 230.108 955.784 229.665 954.455 229.665C952.466 229.665 950.875 230.659 949.682 232.648C948.489 234.636 947.886 237.614 947.875 241.58C947.875 244.261 948.142 246.5 948.676 248.295C949.222 250.08 949.989 251.42 950.977 252.318C951.966 253.205 953.125 253.648 954.455 253.648ZM976.72 259.443C975.595 259.443 974.629 259.045 973.822 258.25C973.027 257.443 972.629 256.477 972.629 255.352C972.629 254.239 973.027 253.284 973.822 252.489C974.629 251.693 975.595 251.295 976.72 251.295C977.811 251.295 978.766 251.693 979.584 252.489C980.402 253.284 980.811 254.239 980.811 255.352C980.811 256.102 980.618 256.79 980.232 257.415C979.857 258.028 979.362 258.523 978.749 258.898C978.135 259.261 977.459 259.443 976.72 259.443ZM986.773 259L1001.24 230.364V230.125H984.386V224.091H1008.88V230.21L994.392 259H986.773ZM1026.05 259.477C1023.5 259.477 1021.23 259.04 1019.24 258.165C1017.27 257.278 1015.7 256.062 1014.56 254.517C1013.42 252.96 1012.84 251.165 1012.8 249.131H1020.23C1020.28 249.983 1020.56 250.733 1021.07 251.381C1021.59 252.017 1022.28 252.511 1023.15 252.864C1024.01 253.216 1024.98 253.392 1026.06 253.392C1027.19 253.392 1028.18 253.193 1029.05 252.795C1029.91 252.398 1030.59 251.847 1031.07 251.142C1031.56 250.437 1031.81 249.625 1031.81 248.705C1031.81 247.773 1031.55 246.949 1031.02 246.233C1030.51 245.506 1029.77 244.937 1028.81 244.528C1027.85 244.119 1026.72 243.915 1025.4 243.915H1022.14V238.494H1025.4C1026.51 238.494 1027.49 238.301 1028.35 237.915C1029.21 237.528 1029.88 236.994 1030.36 236.312C1030.84 235.619 1031.07 234.812 1031.07 233.892C1031.07 233.017 1030.86 232.25 1030.44 231.591C1030.03 230.92 1029.45 230.398 1028.7 230.023C1027.97 229.648 1027.1 229.46 1026.11 229.46C1025.11 229.46 1024.2 229.642 1023.37 230.006C1022.54 230.358 1021.88 230.864 1021.38 231.523C1020.88 232.182 1020.61 232.955 1020.57 233.841H1013.5C1013.53 231.83 1014.11 230.057 1015.22 228.523C1016.34 226.989 1017.84 225.79 1019.72 224.926C1021.62 224.051 1023.76 223.614 1026.15 223.614C1028.56 223.614 1030.66 224.051 1032.47 224.926C1034.28 225.801 1035.68 226.983 1036.68 228.472C1037.69 229.949 1038.19 231.608 1038.18 233.449C1038.19 235.403 1037.59 237.034 1036.36 238.341C1035.14 239.648 1033.56 240.477 1031.6 240.83V241.102C1034.17 241.432 1036.13 242.324 1037.47 243.778C1038.82 245.222 1039.49 247.028 1039.48 249.199C1039.49 251.188 1038.91 252.955 1037.76 254.5C1036.61 256.045 1035.02 257.261 1033 258.148C1030.98 259.034 1028.66 259.477 1026.05 259.477ZM760.831 317V282.091H774.604C777.251 282.091 779.507 282.597 781.371 283.608C783.234 284.608 784.655 286 785.632 287.784C786.621 289.557 787.115 291.602 787.115 293.92C787.115 296.239 786.615 298.284 785.615 300.057C784.615 301.83 783.166 303.21 781.268 304.199C779.382 305.187 777.098 305.682 774.416 305.682H765.638V299.767H773.223C774.643 299.767 775.814 299.523 776.734 299.034C777.666 298.534 778.359 297.847 778.814 296.972C779.28 296.085 779.513 295.068 779.513 293.92C779.513 292.761 779.28 291.75 778.814 290.886C778.359 290.011 777.666 289.335 776.734 288.858C775.803 288.369 774.621 288.125 773.189 288.125H768.212V317H760.831ZM791.909 317V282.091H815.432V288.176H799.29V296.494H814.222V302.58H799.29V310.915H815.5V317H791.909ZM821.3 317V282.091H835.072C837.709 282.091 839.959 282.562 841.822 283.506C843.697 284.437 845.124 285.761 846.101 287.477C847.089 289.182 847.584 291.187 847.584 293.494C847.584 295.812 847.084 297.807 846.084 299.477C845.084 301.136 843.635 302.409 841.737 303.295C839.851 304.182 837.567 304.625 834.885 304.625H825.663V298.693H833.692C835.101 298.693 836.271 298.5 837.203 298.114C838.135 297.727 838.828 297.148 839.283 296.375C839.749 295.602 839.982 294.642 839.982 293.494C839.982 292.335 839.749 291.358 839.283 290.562C838.828 289.767 838.129 289.165 837.186 288.756C836.254 288.335 835.078 288.125 833.658 288.125H828.68V317H821.3ZM840.152 301.114L848.828 317H840.68L832.192 301.114H840.152ZM852.8 282.091H861.902L871.516 305.545H871.925L881.538 282.091H890.641V317H883.482V294.278H883.192L874.158 316.83H869.283L860.249 294.193H859.959V317H852.8V282.091ZM904.102 282.091V317H896.722V282.091H904.102ZM908.845 288.176V282.091H937.516V288.176H926.828V317H919.533V288.176H908.845ZM982.545 282.091V317H976.17L960.983 295.028H960.727V317H953.347V282.091H959.824L974.892 304.045H975.199V282.091H982.545ZM1020.72 299.545C1020.72 303.352 1020 306.591 1018.56 309.261C1017.13 311.932 1015.17 313.972 1012.69 315.381C1010.23 316.778 1007.46 317.477 1004.38 317.477C1001.27 317.477 998.49 316.773 996.024 315.364C993.558 313.955 991.609 311.915 990.178 309.244C988.746 306.574 988.03 303.341 988.03 299.545C988.03 295.739 988.746 292.5 990.178 289.83C991.609 287.159 993.558 285.125 996.024 283.727C998.49 282.318 1001.27 281.614 1004.38 281.614C1007.46 281.614 1010.23 282.318 1012.69 283.727C1015.17 285.125 1017.13 287.159 1018.56 289.83C1020 292.5 1020.72 295.739 1020.72 299.545ZM1013.24 299.545C1013.24 297.08 1012.87 295 1012.13 293.307C1011.4 291.614 1010.38 290.33 1009.05 289.455C1007.72 288.58 1006.16 288.142 1004.38 288.142C1002.59 288.142 1001.04 288.58 999.706 289.455C998.376 290.33 997.342 291.614 996.604 293.307C995.876 295 995.513 297.08 995.513 299.545C995.513 302.011 995.876 304.091 996.604 305.784C997.342 307.477 998.376 308.761 999.706 309.636C1001.04 310.511 1002.59 310.949 1004.38 310.949C1006.16 310.949 1007.72 310.511 1009.05 309.636C1010.38 308.761 1011.4 307.477 1012.13 305.784C1012.87 304.091 1013.24 302.011 1013.24 299.545ZM1028.1 317.443C1026.97 317.443 1026 317.045 1025.2 316.25C1024.4 315.443 1024 314.477 1024 313.352C1024 312.239 1024.4 311.284 1025.2 310.489C1026 309.693 1026.97 309.295 1028.1 309.295C1029.19 309.295 1030.14 309.693 1030.96 310.489C1031.78 311.284 1032.19 312.239 1032.19 313.352C1032.19 314.102 1031.99 314.79 1031.61 315.415C1031.23 316.028 1030.74 316.523 1030.12 316.898C1029.51 317.261 1028.83 317.443 1028.1 317.443ZM1062.74 282.091V317H1055.36V289.097H1055.15L1047.16 294.108V287.562L1055.8 282.091H1062.74Z"
      fill="black" />
    <line x1="454" y1="20" x2="1178" y2="20" stroke="black" stroke-width="8" />
    <line x1="454" y1="404" x2="1178" y2="404" stroke="black" stroke-width="8" />
    <line x1="454" y1="340" x2="655" y2="340" stroke="black" stroke-width="8" />
    <line x1="454" y1="276" x2="655" y2="276" stroke="black" stroke-width="8" />
    <line x1="454" y1="212" x2="655" y2="212" stroke="black" stroke-width="8" />
    <line x1="454" y1="84" x2="655" y2="84" stroke="black" stroke-width="8" />
    <line x1="659" y1="24" x2="659" y2="408" stroke="black" stroke-width="8" />
    <line x1="1174" y1="21" x2="1174" y2="405" stroke="black" stroke-width="8" />
    <line x1="454" y1="148" x2="655" y2="148" stroke="black" stroke-width="8" />
    <path
      d="M113.43 370.766L105.978 364.943L113.112 339.589L112.777 339.327L89.9003 352.38L82.4477 346.557L104.781 317.975L110.643 322.555L96.1063 341.158L96.3436 341.344L118.167 328.659L122.159 331.778L115.074 356.092L115.311 356.277L129.902 337.604L135.764 342.184L113.43 370.766Z"
      fill="black" />
    <path
      d="M96.2105 306.635L101.029 313.292L64.3028 324.415L58.5084 316.409L80.5617 285.013L85.3799 291.67L68.0373 315.437L68.2035 315.667L96.2105 306.635ZM84.9616 315.41L73.5806 299.685L78.4302 296.175L89.8112 311.9L84.9616 315.41Z"
      fill="black" />
    <path d="M44.3579 291.22L76.8855 275.168L80.2793 282.045L47.7517 298.097L44.3579 291.22Z" fill="black" />
    <path
      d="M73.8734 269.066L39.3619 280.231L37.0012 272.934L65.4969 263.715L60.7102 248.92L66.7261 246.974L73.8734 269.066Z"
      fill="black" />
    <path
      d="M65.4083 240.625L29.3532 244.593L26.6796 220.298L32.9646 219.606L34.7993 236.278L43.3905 235.333L41.6934 219.911L47.9784 219.219L49.6755 234.641L58.2844 233.694L56.4419 216.951L62.7269 216.26L65.4083 240.625Z"
      fill="black" />
    <path
      d="M64.0887 196.294L62.5161 209.056L26.5157 204.62L28.1013 191.752C28.5475 188.131 29.6524 185.103 31.4158 182.667C33.1676 180.23 35.4719 178.473 38.3288 177.398C41.1872 176.311 44.4855 175.997 48.2239 176.458C51.9739 176.92 55.1092 178.026 57.6298 179.776C60.1519 181.515 61.9712 183.791 63.0877 186.606C64.2056 189.408 64.5393 192.638 64.0887 196.294ZM56.9325 200.641L57.5282 195.807C57.8055 193.557 57.6402 191.615 57.0325 189.982C56.4146 188.335 55.3095 187.021 53.7172 186.04C52.1148 185.045 49.9717 184.383 47.2881 184.052C44.6279 183.724 42.4057 183.849 40.6214 184.426C38.8386 184.991 37.4541 185.993 36.4681 187.43C35.482 188.867 34.8503 190.71 34.5731 192.96L33.9752 197.812L56.9325 200.641Z"
      fill="black" />
    <path
      d="M73.1354 157.91L40.5061 142.065L50.9968 120.461L56.6847 123.223L49.5439 137.929L57.3188 141.704L63.7633 128.432L69.4511 131.194L63.0066 144.466L76.4853 151.011L73.1354 157.91Z"
      fill="black" />
    <path
      d="M87.3234 130.285L58.8119 107.862L67.6586 96.613C69.3521 94.4598 71.1825 92.925 73.1499 92.0088C75.1153 91.0759 77.1126 90.7615 79.1418 91.0655C81.169 91.353 83.1246 92.2375 85.0087 93.7193C86.902 95.2083 88.2097 96.8977 88.9317 98.7875C89.6444 100.67 89.7532 102.671 89.2582 104.79C88.7704 106.9 87.6652 109.05 85.9426 111.241L80.0193 118.772L75.1745 114.962L80.3314 108.405C81.2366 107.254 81.8306 106.174 82.1136 105.165C82.3966 104.155 82.3685 103.217 82.0293 102.349C81.6975 101.473 81.0629 100.666 80.1255 99.9283C79.1788 99.1838 78.231 98.7463 77.2821 98.6159C76.3404 98.4762 75.3996 98.6601 74.4597 99.1677C73.5177 99.6587 72.5905 100.484 71.6781 101.644L68.4811 105.709L92.0643 124.257L87.3234 130.285ZM86.4579 104.683L105.006 107.802L99.7723 114.456L81.3448 111.185L86.4579 104.683Z"
      fill="black" />
    <path
      d="M124.155 69.2967C126.568 72.431 128.027 75.5549 128.531 78.6683C129.045 81.7746 128.729 84.6929 127.582 87.4232C126.438 90.137 124.598 92.4699 122.063 94.4219C119.508 96.3883 116.77 97.5729 113.846 97.9757C110.923 98.3785 108.025 97.9344 105.154 96.6433C102.282 95.3521 99.6435 93.1441 97.2377 90.0191C94.8248 86.8848 93.3614 83.7645 92.8477 80.6583C92.3339 77.552 92.6492 74.642 93.7935 71.9282C94.9306 69.205 96.7763 66.8603 99.3305 64.8939C101.866 62.9419 104.596 61.7645 107.519 61.3617C110.445 60.9423 113.343 61.3782 116.215 62.6693C119.096 63.9532 121.742 66.1624 124.155 69.2967ZM117.994 74.0397C116.431 72.0094 114.809 70.5313 113.128 69.6055C111.456 68.6724 109.795 68.267 108.146 68.3893C106.497 68.5116 104.937 69.1382 103.469 70.269C102 71.3998 100.995 72.7468 100.455 74.31C99.915 75.8731 99.8776 77.5858 100.343 79.4481C100.817 81.3031 101.836 83.2458 103.399 85.2761C104.962 87.3064 106.579 88.788 108.251 89.7211C109.933 90.647 111.598 91.0488 113.247 90.9265C114.897 90.8042 116.456 90.1776 117.925 89.0468C119.393 87.9159 120.398 86.5689 120.938 85.0058C121.478 83.4426 121.511 81.7336 121.036 79.8785C120.571 78.0163 119.557 76.07 117.994 74.0397Z"
      fill="black" />
    <path
      d="M128.396 46.0542L137.235 42.6895L155.24 61.9122L155.638 61.761L156.303 35.4309L165.142 32.0662L178.047 65.966L171.094 68.6123L162.695 46.5477L162.414 46.6548L161.977 71.8934L157.243 73.6955L140.103 55.0531L139.821 55.1602L148.252 77.3076L141.3 79.9539L128.396 46.0542Z"
      fill="black" />
    <path
      d="M200.072 63.2189L200.08 58.6671L218.223 33.2989L200.086 33.269L200.097 26.9461L227.868 26.9918L227.86 31.5436L209.7 56.9118L227.854 56.9416L227.844 63.2645L200.072 63.2189Z"
      fill="black" />
    <path d="M246.208 29.9714L240.442 65.783L232.871 64.564L238.636 28.7524L246.208 29.9714Z" fill="black" />
    <path
      d="M247.352 66.7596L258.766 32.3295L272.349 36.8327C274.961 37.6984 277.02 38.9347 278.527 40.5415C280.039 42.1371 280.984 43.9745 281.365 46.0536C281.76 48.1253 281.579 50.3043 280.821 52.5907C280.063 54.877 278.901 56.7309 277.335 58.1524C275.769 59.5738 273.889 60.4618 271.694 60.8164C269.51 61.1747 267.096 60.9155 264.451 60.0386L255.793 57.1684L257.727 51.3348L265.208 53.8149C266.609 54.2793 267.843 54.421 268.911 54.24C269.993 54.0516 270.902 53.6002 271.636 52.8858C272.386 52.1639 272.948 51.237 273.323 50.105C273.702 48.9618 273.803 47.8882 273.626 46.884C273.464 45.8724 273.001 44.9789 272.238 44.2035C271.479 43.4169 270.393 42.7896 268.981 42.3214L264.072 40.694L254.631 69.1728L247.352 66.7596Z"
      fill="black" />
    <path
      d="M331.713 86.0426L325.567 81.3094C326.067 80.4278 326.382 79.545 326.511 78.661C326.648 77.7677 326.614 76.8922 326.41 76.0347C326.206 75.1772 325.839 74.3577 325.308 73.5763C324.786 72.8021 324.114 72.098 323.29 71.464C321.803 70.3186 320.223 69.6903 318.55 69.5793C316.884 69.4588 315.207 69.8661 313.518 70.8011C311.836 71.7267 310.228 73.1859 308.694 75.1785C307.116 77.2272 306.095 79.1827 305.629 81.0449C305.173 82.9143 305.224 84.6295 305.78 86.1906C306.336 87.7517 307.339 89.0905 308.789 90.2072C309.603 90.834 310.439 91.3063 311.297 91.6243C312.165 91.9494 313.028 92.1151 313.888 92.1213C314.754 92.1182 315.596 91.9541 316.413 91.6292C317.239 91.3114 318.017 90.823 318.748 90.164L324.873 94.9252C323.698 96.1218 322.321 97.0879 320.741 97.8235C319.177 98.557 317.491 98.9949 315.683 99.1372C313.891 99.2773 312.044 99.0625 310.143 98.4927C308.259 97.9208 306.395 96.9252 304.552 95.506C301.989 93.532 300.144 91.187 299.016 88.4709C297.898 85.7619 297.601 82.858 298.125 79.759C298.658 76.6673 300.127 73.5591 302.534 70.4345C304.947 67.3006 307.59 65.0882 310.461 63.7975C313.333 62.5068 316.222 62.0642 319.129 62.4697C322.043 62.8658 324.763 64.0364 327.289 65.9815C328.954 67.2639 330.318 68.6864 331.379 70.2492C332.451 71.8192 333.192 73.4783 333.605 75.2265C334.024 76.9653 334.083 78.7468 333.781 80.5709C333.488 82.4022 332.799 84.2261 331.713 86.0426Z"
      fill="black" />
    <path
      d="M356.41 124.911C353.263 127.308 350.132 128.751 347.016 129.239C343.907 129.737 340.991 129.406 338.266 128.245C335.558 127.087 333.235 125.235 331.296 122.69C329.343 120.126 328.172 117.381 327.784 114.455C327.396 111.53 327.855 108.635 329.161 105.77C330.467 102.905 332.688 100.278 335.826 97.8878C338.972 95.491 342.1 94.0436 345.209 93.5458C348.318 93.0479 351.226 93.3781 353.934 94.5363C356.651 95.6874 358.987 97.545 360.94 100.109C362.879 102.655 364.042 105.39 364.43 108.316C364.834 111.243 364.384 114.14 363.078 117.005C361.779 119.879 359.557 122.514 356.41 124.911ZM351.699 118.726C353.737 117.173 355.223 115.559 356.158 113.882C357.099 112.215 357.513 110.556 357.399 108.907C357.286 107.257 356.667 105.694 355.544 104.22C354.42 102.745 353.079 101.734 351.518 101.186C349.958 100.638 348.245 100.591 346.381 101.047C344.523 101.512 342.575 102.52 340.537 104.073C338.499 105.626 337.009 107.236 336.067 108.903C335.133 110.579 334.722 112.243 334.836 113.893C334.95 115.542 335.569 117.105 336.692 118.579C337.815 120.054 339.157 121.065 340.718 121.613C342.278 122.162 343.987 122.203 345.844 121.738C347.709 121.283 349.66 120.279 351.699 118.726Z"
      fill="black" />
    <path
      d="M349.97 153.877L345.077 141.986L378.621 128.184L383.554 140.173C384.942 143.547 385.466 146.728 385.125 149.716C384.795 152.699 383.649 155.36 381.687 157.699C379.731 160.049 377.011 161.941 373.527 163.374C370.033 164.812 366.758 165.387 363.703 165.099C360.653 164.822 357.951 163.732 355.597 161.827C353.247 159.934 351.371 157.284 349.97 153.877ZM354.072 146.578L355.925 151.082C356.788 153.179 357.884 154.789 359.215 155.914C360.562 157.046 362.17 157.648 364.039 157.722C365.923 157.802 368.115 157.327 370.616 156.299C373.095 155.279 374.97 154.079 376.241 152.701C377.517 151.333 378.232 149.781 378.386 148.045C378.54 146.31 378.185 144.393 377.323 142.297L375.462 137.776L354.072 146.578Z"
      fill="black" />
    <path
      d="M358.22 177.253L394.03 171.474L397.924 195.603L391.682 196.61L389.009 180.052L380.477 181.429L382.948 196.746L376.706 197.753L374.234 182.436L365.684 183.816L368.368 200.445L362.126 201.452L358.22 177.253Z"
      fill="black" />
    <path
      d="M359.663 236.199C360.065 233.584 360.872 231.325 362.084 229.421C363.306 227.53 364.802 226.117 366.57 225.182C368.348 224.261 370.284 223.943 372.379 224.229L371.206 231.861C370.324 231.774 369.51 231.941 368.764 232.364C368.028 232.801 367.411 233.435 366.913 234.266C366.415 235.097 366.08 236.067 365.91 237.176C365.733 238.332 365.78 239.384 366.052 240.334C366.324 241.283 366.784 242.065 367.43 242.678C368.077 243.291 368.873 243.67 369.818 243.815C370.775 243.962 371.662 243.824 372.48 243.4C373.308 242.989 374.008 242.32 374.58 241.393C375.151 240.477 375.54 239.342 375.748 237.989L376.262 234.645L381.829 235.5L381.315 238.844C381.14 239.987 381.183 241.027 381.445 241.964C381.706 242.912 382.149 243.684 382.773 244.282C383.41 244.882 384.201 245.254 385.146 245.399C386.045 245.537 386.866 245.442 387.609 245.115C388.362 244.8 388.991 244.287 389.494 243.576C389.996 242.877 390.324 242.02 390.48 241.004C390.638 239.977 390.596 239.009 390.353 238.1C390.122 237.192 389.708 236.43 389.11 235.812C388.512 235.195 387.76 234.798 386.855 234.624L387.971 227.359C390.032 227.711 391.762 228.58 393.162 229.966C394.561 231.352 395.556 233.081 396.145 235.155C396.745 237.242 396.856 239.511 396.48 241.962C396.1 244.436 395.318 246.532 394.134 248.249C392.95 249.967 391.515 251.222 389.829 252.014C388.152 252.819 386.369 253.071 384.48 252.769C382.471 252.472 380.892 251.591 379.744 250.124C378.593 248.669 377.991 246.91 377.938 244.847L377.658 244.804C376.914 247.39 375.69 249.257 373.984 250.404C372.289 251.565 370.328 251.969 368.1 251.615C366.056 251.313 364.332 250.445 362.928 249.01C361.521 247.588 360.523 245.768 359.932 243.551C359.34 241.334 359.251 238.883 359.663 236.199Z"
      fill="black" />
    <path
      d="M385.311 281.355L351.036 269.483L353.546 262.236L380.942 271.726L381.012 271.525L378.81 261.971L385.237 264.197L387.67 274.543L385.311 281.355Z"
      fill="black" />
    <path
      d="M341.955 286.382C343.25 284.076 344.8 282.244 346.605 280.888C348.414 279.548 350.31 278.751 352.294 278.497C354.283 278.26 356.207 278.643 358.067 279.648L354.286 286.38C353.491 285.988 352.67 285.859 351.823 285.992C350.98 286.142 350.18 286.519 349.421 287.122C348.662 287.725 348.008 288.515 347.459 289.494C346.887 290.513 346.561 291.515 346.482 292.499C346.403 293.484 346.558 294.377 346.948 295.178C347.337 295.98 347.949 296.614 348.783 297.083C349.627 297.557 350.507 297.739 351.421 297.63C352.34 297.537 353.231 297.157 354.093 296.49C354.949 295.833 355.713 294.908 356.383 293.713L358.04 290.764L362.951 293.522L361.294 296.471C360.728 297.48 360.402 298.469 360.319 299.438C360.229 300.417 360.372 301.296 360.747 302.075C361.132 302.86 361.742 303.487 362.575 303.955C363.368 304.401 364.17 304.601 364.981 304.555C365.797 304.525 366.565 304.266 367.286 303.778C368.002 303.299 368.611 302.612 369.114 301.717C369.623 300.811 369.924 299.889 370.017 298.953C370.12 298.022 370 297.163 369.657 296.374C369.314 295.586 368.75 294.951 367.964 294.469L371.564 288.06C373.369 289.115 374.683 290.537 375.506 292.326C376.329 294.115 376.652 296.084 376.474 298.233C376.302 300.397 375.608 302.56 374.394 304.722C373.168 306.905 371.699 308.592 369.987 309.784C368.275 310.975 366.49 311.646 364.633 311.794C362.78 311.959 361.022 311.567 359.36 310.62C357.584 309.636 356.416 308.256 355.856 306.479C355.291 304.712 355.346 302.854 356.022 300.904L355.774 300.766C354.169 302.925 352.367 304.241 350.367 304.716C348.371 305.207 346.393 304.895 344.432 303.78C342.625 302.779 341.316 301.36 340.506 299.523C339.69 297.697 339.395 295.642 339.621 293.359C339.847 291.075 340.625 288.75 341.955 286.382Z"
      fill="black" />
    <path
      d="M323.126 312.457C324.885 310.481 326.791 309.024 328.844 308.085C330.898 307.163 332.921 306.79 334.913 306.967C336.906 307.161 338.704 307.947 340.306 309.326L335.172 315.094C334.479 314.54 333.705 314.238 332.849 314.188C331.994 314.154 331.131 314.35 330.261 314.777C329.391 315.204 328.583 315.836 327.837 316.674C327.06 317.547 326.527 318.456 326.239 319.401C325.951 320.346 325.912 321.252 326.121 322.118C326.33 322.984 326.792 323.735 327.506 324.371C328.229 325.015 329.049 325.381 329.966 325.47C330.884 325.575 331.835 325.395 332.82 324.928C333.797 324.47 334.741 323.729 335.652 322.706L337.901 320.179L342.108 323.924L339.858 326.451C339.089 327.315 338.56 328.212 338.271 329.14C337.974 330.077 337.925 330.966 338.125 331.808C338.333 332.657 338.794 333.4 339.508 334.036C340.188 334.64 340.928 335.007 341.73 335.136C342.533 335.282 343.339 335.193 344.148 334.87C344.95 334.556 345.692 334.015 346.375 333.248C347.066 332.472 347.557 331.636 347.848 330.741C348.147 329.854 348.214 328.989 348.048 328.146C347.882 327.302 347.467 326.561 346.803 325.922L351.69 320.432C353.227 321.848 354.207 323.518 354.628 325.443C355.049 327.367 354.943 329.359 354.31 331.42C353.678 333.497 352.538 335.462 350.889 337.314C349.224 339.184 347.429 340.517 345.501 341.315C343.574 342.113 341.687 342.385 339.841 342.133C337.996 341.897 336.362 341.139 334.942 339.858C333.417 338.517 332.571 336.918 332.405 335.063C332.231 333.217 332.682 331.413 333.759 329.653L333.548 329.464C331.518 331.23 329.475 332.13 327.42 332.166C325.365 332.219 323.5 331.491 321.823 329.982C320.272 328.617 319.297 326.951 318.898 324.984C318.492 323.025 318.644 320.955 319.353 318.773C320.063 316.59 321.32 314.485 323.126 312.457Z"
      fill="black" />
    <path
      d="M309.096 327.147L314.624 360.024L314.771 360.224L328.879 349.84L332.595 354.89L312.098 369.977L308.329 364.856L302.72 331.84L309.096 327.147Z"
      fill="black" />
  </g>
  <defs>
    <clipPath id="clip0_1_4">
      <rect width="1178" height="426" fill="white" />
    </clipPath>
  </defs>
</svg>